PathFileType	4	(X/Y/Z)	/Users/itak/Documents/Research/Walk-IL/dataset/trc/00517_00183.trc
DataRate	CameraRate	NumFrames	NumMarkers	Units	OrigDataRate	OrigDataStartFrame	OrigNumFrames
100.000000	100.000000	4	54	mm	100.000000	294	392
Frame#	Time	RPSI			LPSI			L3			STRN			T10			C7			CLAV			RBAK			LBAK			LSHO			LUPA			LAEL			LAOL			LWTS			LWPS			LFRA			LIFD			LHPS			LHTS			RSHO			RUPA			RAEL			RAOL			RWTS			RWPS			RFRA			RIFD			RHTS			RHPS			RBHD			LFHD			RFHD			LBHD			RHIP			RASI			LASI			LKNE			LTHI			LANK			LTIP			LTOE			LMT1			LMT5			LHEE			RKNE			RTHI			RANK			RTIP			RTOE			RMT1			RMT5			RHEE			LHIP			*53			
		X1	Y1	Z1	X2	Y2	Z2	X3	Y3	Z3	X4	Y4	Z4	X5	Y5	Z5	X6	Y6	Z6	X7	Y7	Z7	X8	Y8	Z8	X9	Y9	Z9	X10	Y10	Z10	X11	Y11	Z11	X12	Y12	Z12	X13	Y13	Z13	X14	Y14	Z14	X15	Y15	Z15	X16	Y16	Z16	X17	Y17	Z17	X18	Y18	Z18	X19	Y19	Z19	X20	Y20	Z20	X21	Y21	Z21	X22	Y22	Z22	X23	Y23	Z23	X24	Y24	Z24	X25	Y25	Z25	X26	Y26	Z26	X27	Y27	Z27	X28	Y28	Z28	X29	Y29	Z29	X30	Y30	Z30	X31	Y31	Z31	X32	Y32	Z32	X33	Y33	Z33	X34	Y34	Z34	X35	Y35	Z35	X36	Y36	Z36	X37	Y37	Z37	X38	Y38	Z38	X39	Y39	Z39	X40	Y40	Z40	X41	Y41	Z41	X42	Y42	Z42	X43	Y43	Z43	X44	Y44	Z44	X45	Y45	Z45	X46	Y46	Z46	X47	Y47	Z47	X48	Y48	Z48	X49	Y49	Z49	X50	Y50	Z50	X51	Y51	Z51	X52	Y52	Z52	X53	Y53	Z53	X54	Y54	Z54	

295	2.94	1257.5751953125	955.584716796875	281.5823669433594	1380.931884765625	953.9662475585938	284.4771728515625	1320.592895507812	1014.705993652344	268.6782836914062	1339.067993164062	1193.78515625	479.4293518066406	1315.964599609375	1119.675170898438	249.4581756591797	1315.28271484375	1351.577392578125	282.7372131347656	1335.419921875	1286.890625	439.1527404785156	1226.786499023438	1227.6328125	249.2976837158203	1399.45947265625	1294.81640625	250.9988861083984	1482.125854492188	1349.243896484375	332.293212890625	1545.535034179688	1224.625854492188	324.9207763671875	1585.120849609375	1019.621032714844	360.69287109375	1510.627075195312	998.603271484375	296.9458312988281	1562.555297851562	859.1458740234375	490.4821472167969	1599.947875976562	806.4527587890625	421.8306884765625	1592.628173828125	942.9306030273438	395.1700439453125	1565.804565429688	708.626953125	534.7799682617188	1601.3251953125	761.7210083007812	459.7708740234375	1587.4453125	788.3319702148438	517.6205444335938	1173.883422851562	1348.455688476562	351.6537780761719	1117.042114257812	1280.801025390625	343.6656188964844	1070.839599609375	1015.103576660156	351.7274780273438	1109.998291015625	996.0972900390625	302.9539794921875	1098.98486328125	813.042724609375	455.9053344726562	1051.462524414062	787.2006225585938	383.3915100097656	1062.780883789062	960.3250122070312	356.5225219726562	1092.17578125	653.4612426757812	463.1274719238281	1073.280395507812	722.1932373046875	473.2480163574219	1049.69921875	718.8145141601562	406.5742797851562	1223.864624023438	1501.841064453125	339.5427551269531	1392.983154296875	1586.624145507812	407.4693603515625	1271.100952148438	1578.540161132812	444.2576293945312	1373.5224609375	1505.993530273438	280.1284484863281	1130.815551757812	858.8657836914062	389.3463745117188	1199.62353515625	905.2891845703125	486.7828063964844	1442.408813476562	915.6459350585938	483.1256103515625	1466.922729492188	462.4214782714844	381.5307312011719	1490.842041015625	617.63037109375	406.3311767578125	1438.57421875	33.8420524597168	276.7004699707031	1464.49462890625	315.3218078613281	342.6058959960938	1385.77783203125	24.82497978210449	478.4678649902344	1350.631591796875	28.08298873901367	399.9706115722656	1452.66064453125	27.46216011047363	386.1744384765625	1376.02685546875	28.24471855163574	231.8037567138672	1172.323364257812	470.5435485839844	393.8944396972656	1139.691650390625	742.8815307617188	430.860595703125	1194.748779296875	40.32266235351562	301.6518249511719	1190.25927734375	325.5877990722656	386.9935302734375	1259.109252929688	29.07444381713867	496.1239929199219	1288.583862304688	35.43196868896484	425.2731018066406	1192.622924804688	36.50352478027344	415.3307495117188	1236.12744140625	33.53670883178711	244.6119232177734	1511.218383789062	879.2868041992188	390.9792785644531	nan	nan	nan	
296	2.95	1258.00146484375	955.3870239257812	282.5822448730469	1381.335693359375	953.6694946289062	285.8356323242188	1320.9853515625	1014.064880371094	269.3672790527344	1339.03662109375	1193.376953125	480.3630676269531	1316.12109375	1119.259521484375	249.9060516357422	1315.534790039062	1351.125122070312	283.6173400878906	1335.550048828125	1286.468872070312	440.0247497558594	1227.01611328125	1227.197998046875	250.1425933837891	1399.625732421875	1294.188598632812	251.8848571777344	1482.428344726562	1348.547973632812	333.12255859375	1545.400756835938	1223.707641601562	325.3136596679688	1584.364501953125	1018.350830078125	359.7724914550781	1509.317626953125	997.9920654296875	296.3665161132812	1562.279296875	856.0745239257812	487.8133850097656	1598.82373046875	804.2398681640625	418.0828857421875	1591.919311523438	940.998779296875	393.2719421386719	1565.387939453125	704.9131469726562	529.857421875	1600.312866210938	758.9265747070312	455.2876281738281	1587.141235351562	784.7493286132812	513.6931762695312	1174.124633789062	1348.149291992188	352.3672790527344	1117.15869140625	1280.43701171875	344.4953002929688	1070.835327148438	1014.7587890625	353.2181091308594	1109.885864257812	995.598388671875	304.4707946777344	1099.115478515625	813.0322265625	457.8636169433594	1051.440063476562	786.9694213867188	385.5200500488281	1062.76611328125	960.0188598632812	358.162353515625	1092.394775390625	653.4900512695312	465.5578308105469	1073.463989257812	722.2300415039062	475.5202331542969	1049.71484375	718.6284790039062	408.9227905273438	1224.172607421875	1501.48095703125	340.5758056640625	1393.447875976562	1586.327026367188	407.888427734375	1271.628540039062	1578.301025390625	445.0911254882812	1373.608032226562	1505.584228515625	280.7168273925781	1130.873413085938	858.8287353515625	389.5771179199219	1199.234252929688	904.8704833984375	487.5556945800781	1442.070434570312	915.0838623046875	484.6886291503906	1467.016357421875	462.1732482910156	381.3020935058594	1490.828247070312	617.2910766601562	406.8887634277344	1438.490112304688	33.84257507324219	276.6664428710938	1464.724487304688	315.2973022460938	342.0942687988281	1385.747924804688	24.82818603515625	478.4567565917969	1350.549072265625	28.07108497619629	399.9599609375	1452.608642578125	27.46375465393066	386.1627197265625	1375.968994140625	28.26413917541504	231.7481689453125	1170.216552734375	470.2690124511719	391.3847961425781	1139.219604492188	743.5457763671875	431.2673645019531	1194.64453125	39.86944198608398	301.4114990234375	1189.053955078125	325.710205078125	384.27001953125	1258.991821289062	29.08578872680664	496.018310546875	1288.516845703125	35.48569107055664	425.2296752929688	1192.559936523438	36.43765640258789	415.2376708984375	1236.133056640625	32.80521392822266	244.5242919921875	1511.181274414062	878.8919067382812	392.8469848632812	nan	nan	nan	
297	2.96	1258.379028320312	955.1254272460938	283.5006103515625	1381.722290039062	953.3578491210938	287.0873107910156	1321.38232421875	1013.502685546875	270.0689392089844	1339.003051757812	1192.980834960938	481.2593383789062	1316.333618164062	1118.87744140625	250.3242645263672	1315.788696289062	1350.696899414062	284.4552001953125	1335.685180664062	1286.0556640625	440.8689270019531	1227.242797851562	1226.781982421875	250.94140625	1399.780151367188	1293.593505859375	252.7390899658203	1482.712890625	1347.868041992188	333.9224243164062	1545.280639648438	1222.811645507812	325.6929626464844	1583.626586914062	1017.11962890625	358.7888488769531	1508.053833007812	997.4115600585938	295.712646484375	1562.0283203125	852.9722900390625	485.0044555664062	1597.771484375	802.0956420898438	414.1806335449219	1591.21875	939.0999755859375	391.2781677246094	1564.954956054688	701.1363525390625	524.5894165039062	1599.349975585938	756.1781616210938	450.5843505859375	1586.852661132812	781.124755859375	509.5499877929688	1174.34716796875	1347.853637695312	353.0659790039062	1117.2763671875	1280.082397460938	345.2784118652344	1070.805419921875	1014.425537109375	354.6448059082031	1109.753173828125	995.1017456054688	305.9106750488281	1099.195922851562	813.05419921875	459.7825622558594	1051.393432617188	786.7833862304688	387.5877685546875	1062.743041992188	959.725341796875	359.7221069335938	1092.484375	653.5657958984375	467.9915466308594	1073.554809570312	722.31103515625	477.7640075683594	1049.682006835938	718.5023803710938	411.2291564941406	1224.451293945312	1501.123901367188	341.5847473144531	1393.874877929688	1586.028686523438	408.3152160644531	1272.139038085938	1578.052490234375	445.9349060058594	1373.657958984375	1505.195068359375	281.2752075195312	1130.894653320312	858.78076171875	389.77294921875	1198.842041015625	904.4671020507812	488.2723999023438	1441.7353515625	914.5595703125	486.1660766601562	1467.104614257812	461.9405822753906	381.1829833984375	1490.81201171875	616.9663696289062	407.4795227050781	1438.420043945312	33.83594131469727	276.6379089355469	1464.916625976562	315.2627258300781	341.7164001464844	1385.722778320312	24.83065986633301	478.4456481933594	1350.478149414062	28.06191253662109	399.9423217773438	1452.568969726562	27.46345901489258	386.1466674804688	1375.923950195312	28.28301811218262	231.7041320800781	1168.270141601562	470.0963745117188	388.8627624511719	1138.752685546875	744.1907348632812	431.6893005371094	1194.490234375	39.50283050537109	301.1936950683594	1187.79443359375	325.9322814941406	381.5606079101562	1258.87744140625	29.12954139709473	495.9209594726562	1288.415405273438	35.55094909667969	425.1968383789062	1192.478637695312	36.37017059326172	415.1448364257812	1236.095458984375	32.20972061157227	244.4609222412109	1511.187255859375	878.5977783203125	394.7529907226562	nan	nan	nan	
298	2.97	1258.706420898438	954.8280639648438	284.3343811035156	1382.084838867188	953.0426025390625	288.2442321777344	1321.768432617188	1013.025207519531	270.7695922851562	1338.974487304688	1192.606689453125	482.1192016601562	1316.598388671875	1118.54296875	250.7320098876953	1316.045043945312	1350.299072265625	285.2416381835938	1335.826171875	1285.661376953125	441.6843566894531	1227.458984375	1226.388671875	251.7042083740234	1399.92919921875	1293.041870117188	253.559814453125	1482.97607421875	1347.214111328125	334.6856994628906	1545.183471679688	1221.953735351562	326.0511779785156	1582.905029296875	1015.947021484375	357.7493591308594	1506.841064453125	996.876708984375	294.9939880371094	1561.794921875	849.8772583007812	482.0852661132812	1596.797607421875	800.0570068359375	410.1658020019531	1590.533325195312	937.266357421875	389.2157592773438	1564.480834960938	697.3341064453125	519.0004272460938	1598.454223632812	753.5220947265625	445.7130432128906	1586.556396484375	777.4981689453125	505.2273559570312	1174.554809570312	1347.5751953125	353.7482604980469	1117.40673828125	1279.761840820312	346.0024719238281	1070.756469726562	1014.126098632812	355.9990539550781	1109.62060546875	994.6178588867188	307.2619018554688	1099.222778320312	813.1126708984375	461.6533203125	1051.325073242188	786.6494750976562	389.5869750976562	1062.707641601562	959.4613647460938	361.2019653320312	1092.441162109375	653.6901245117188	470.4114990234375	1073.556762695312	722.4446411132812	479.9660339355469	1049.599609375	718.4443359375	413.4769287109375	1224.697998046875	1500.77734375	342.56689453125	1394.262939453125	1585.73291015625	408.7597961425781	1272.636108398438	1577.790405273438	446.7831420898438	1373.673950195312	1504.833251953125	281.8107299804688	1130.88037109375	858.7251586914062	389.9467468261719	1198.444580078125	904.0794067382812	488.931396484375	1441.403686523438	914.0835571289062	487.5557250976562	1467.190185546875	461.7326965332031	381.1894226074219	1490.78271484375	616.661376953125	408.1186828613281	1438.363647460938	33.82706451416016	276.6150207519531	1465.076782226562	315.2272338867188	341.4810485839844	1385.702392578125	24.83576774597168	478.4325866699219	1350.42041015625	28.05488014221191	399.9187927246094	1452.53955078125	27.46465682983398	386.1292114257812	1375.89013671875	28.30030250549316	231.6735382080078	1166.538208007812	470.0418701171875	386.2994384765625	1138.330200195312	744.8466796875	432.1250610351562	1194.293334960938	39.22367477416992	301.0038146972656	1186.494506835938	326.2331848144531	378.8979797363281	1258.765747070312	29.20359802246094	495.8333129882812	1288.285766601562	35.6269645690918	425.1701354980469	1192.380004882812	36.29839706420898	415.0556030273438	1236.022094726562	31.73911094665527	244.4180603027344	1511.26123046875	878.4503173828125	396.7089233398438	nan	nan	nan	
